<svg xmlns="http://www.w3.org/2000/svg" xmlns:xlink="http://www.w3.org/1999/xlink" version="1.1" x="0px" y="0px" viewBox="0 0 32 40" style="enable-background:new 0 0 32 32;" xml:space="preserve"><path d="M26.294,24.051c-1.754-0.582-2.229-2.556-2.316-4.051v-5c0-3.482-2.244-6.448-5.37-7.543C18.85,7.024,19.001,6.531,19.001,6  c0-1.654-1.346-3-3-3s-3,1.346-3,3c0,0.527,0.148,1.015,0.388,1.446C10.259,8.533,8.001,11.508,8.001,15l0.002,4.942  c-0.09,1.553-0.564,3.526-2.318,4.108C5.284,24.184,5.001,24.61,5.001,25c0,0.548,0.572,1,1,1c0,0,6.142,0,6.142,0  c0.447,1.721,1.999,3,3.858,3s3.411-1.279,3.858-3c0,0,6.142,0,6.142,0c0.525,0,1-0.479,1-1  C27.001,24.559,26.712,24.197,26.294,24.051z M16.001,5c0.552,0,1,0.448,1,1s-0.448,1-1,1s-1-0.448-1-1S15.449,5,16.001,5z   M10.001,15c0-3.299,2.683-5.99,5.997-6c3.297,0.01,5.979,2.701,5.979,6l0.002,5.058c0.092,1.601,0.498,2.928,1.172,3.942H13.001  H8.822c0.677-1.022,1.086-2.366,1.179-4V15z M16.001,27c-0.737,0-1.375-0.405-1.722-1h3.443C17.376,26.595,16.738,27,16.001,27z"/><text x="0" y="47" fill="#000000" font-size="5px" font-weight="bold" font-family="'Helvetica Neue', Helvetica, Arial-Unicode, Arial, Sans-serif">Created by iconpixel</text><text x="0" y="52" fill="#000000" font-size="5px" font-weight="bold" font-family="'Helvetica Neue', Helvetica, Arial-Unicode, Arial, Sans-serif">from the Noun Project</text></svg>